<svg width="24" height="25" viewBox="0 0 24 25" stroke="#101317" fill="none" xmlns="http://www.w3.org/2000/svg">
<path d="M10 19.7007C10 20.8007 10.9 21.7007 12 21.7007C13.1 21.7007 14 20.8007 14 19.7007C14 18.6007 13.1 17.7007 12 17.7007C10.9 17.7007 10 18.6007 10 19.7007Z" stroke-width="1.5"/>
<path d="M10 5.70068C10 6.80068 10.9 7.70068 12 7.70068C13.1 7.70068 14 6.80068 14 5.70068C14 4.60068 13.1 3.70068 12 3.70068C10.9 3.70068 10 4.60068 10 5.70068Z" stroke-width="1.5"/>
<path d="M10 12.7007C10 13.8007 10.9 14.7007 12 14.7007C13.1 14.7007 14 13.8007 14 12.7007C14 11.6007 13.1 10.7007 12 10.7007C10.9 10.7007 10 11.6007 10 12.7007Z" stroke-width="1.5"/>
</svg>
